<svg width="108" height="26" viewBox="0 0 108 26" fill="none" xmlns="http://www.w3.org/2000/svg">
<g filter="url(#filter0_d_2340_24)">
<path d="M41.6506 17.6034V4.79021H44.3192C44.4558 5.07779 44.562 5.3788 44.6363 5.68838C44.8477 6.32251 44.954 7.03588 44.9553 7.82849V8.01355C45.2194 6.90374 45.73 6.03629 46.4872 5.41119C47.2445 4.78609 48.1516 4.47341 49.2085 4.47314C51.41 4.47314 52.5989 5.70606 52.7752 8.17188C53.0746 6.99215 53.6293 6.08069 54.4395 5.43751C55.2497 4.79433 56.192 4.47288 57.2664 4.47314C58.4629 4.47314 59.4052 4.85177 60.0933 5.60901C60.7814 6.36625 61.125 7.49347 61.1239 8.99068V17.6054H57.7685V9.15021C57.7685 8.39323 57.632 7.85162 57.3589 7.52538C57.0859 7.19914 56.6147 7.03615 55.9455 7.03642C55.0473 7.03642 54.3472 7.35348 53.8452 7.98762C53.3433 8.62176 53.0835 9.52005 53.0659 10.6825V17.6034H49.7106V9.14821C49.7106 8.39124 49.574 7.84963 49.301 7.52339C49.0279 7.19714 48.5568 7.03416 47.8875 7.03442C47.0069 7.03442 46.3112 7.35149 45.8005 7.98563C45.2897 8.61976 45.0255 9.51806 45.008 10.6805V17.6034H41.6506Z" fill="white"/>
<path d="M69.1625 17.8941C67.3484 17.8941 65.825 17.3172 64.5924 16.1635C63.3598 15.0099 62.7428 13.3058 62.7415 11.0514V10.9987C62.7415 8.9905 63.3358 7.4009 64.5246 6.22994C65.7134 5.05898 67.2588 4.47404 69.161 4.4751C71.0634 4.4751 72.6133 5.05632 73.8109 6.21877C75.0084 7.38123 75.6066 8.96643 75.6056 10.9744V11.027C75.6056 13.2993 74.9891 15.0121 73.7562 16.1655C72.5233 17.319 70.9921 17.8951 69.1625 17.8941ZM69.1625 15.7005C71.1878 15.7005 72.2005 14.2739 72.2008 11.4207V10.4703C72.2008 9.2738 71.9279 8.34918 71.382 7.69643C70.8362 7.04368 70.0963 6.71784 69.1625 6.7189C68.2288 6.7189 67.4935 7.04475 66.9566 7.69643C66.4198 8.34812 66.1513 9.27273 66.151 10.4703V11.4215C66.1497 14.2747 67.1535 15.7013 69.1625 15.7013V15.7005Z" fill="white"/>
<path d="M77.2986 17.6034V4.79021H79.9707C80.108 5.07771 80.2149 5.37872 80.2898 5.68838C80.5012 6.32251 80.6069 7.03588 80.6069 7.82849V8.09251C80.8533 6.96596 81.3729 6.08096 82.1655 5.43751C82.9581 4.79407 83.9356 4.47261 85.0981 4.47315C86.4009 4.47315 87.4137 4.85177 88.1363 5.60901C88.859 6.36625 89.2201 7.49347 89.2196 8.99068V17.6054H85.8905V9.15021C85.8905 7.74101 85.1773 7.03642 83.7508 7.03642C82.8346 7.03642 82.0901 7.35787 81.5174 8.00078C80.9447 8.64369 80.6584 9.5376 80.6587 10.6825V17.6034H77.2986Z" fill="white"/>
<path d="M97.2549 17.8941C95.4408 17.8941 93.9172 17.3172 92.6843 16.1636C91.4514 15.0099 90.835 13.3058 90.835 11.0514V10.9987C90.835 8.9905 91.4294 7.40091 92.6181 6.22994C93.8069 5.05898 95.3525 4.47404 97.2549 4.4751C99.1568 4.4751 100.707 5.05633 101.904 6.21878C103.102 7.38123 103.701 8.96578 103.701 10.9724V11.0251C103.701 13.2973 103.085 15.0102 101.852 16.1636C100.619 17.317 99.0866 17.8938 97.2549 17.8941ZM97.2549 15.7005C99.2802 15.7005 100.293 14.2739 100.293 11.4207V10.4703C100.293 9.2738 100.02 8.34919 99.474 7.69644C98.9279 7.04369 98.1882 6.71784 97.2549 6.71891C96.3208 6.71891 95.5855 7.04475 95.049 7.69644C94.5124 8.34812 94.2438 9.27274 94.243 10.4703V11.4215C94.243 14.2747 95.2469 15.7013 97.2549 15.7013V15.7005Z" fill="white"/>
<path d="M15.2155 17.2717C15.2157 17.3864 15.1841 17.4989 15.1243 17.5967C15.0644 17.6945 14.9787 17.7739 14.8765 17.826C14.7743 17.8781 14.6597 17.9008 14.5454 17.8918C14.431 17.8827 14.3214 17.8421 14.2288 17.7746L4.25565 10.4597C4.17674 10.4021 4.11249 10.3267 4.06808 10.2397C4.02367 10.1527 4.00035 10.0564 4 9.95875V0.622169C3.9998 0.50748 4.03137 0.394977 4.0912 0.297133C4.15104 0.199289 4.2368 0.119926 4.33898 0.0678439C4.44116 0.0157619 4.55577 -0.00700455 4.6701 0.00206856C4.78443 0.0111417 4.89402 0.0516999 4.9867 0.119247L14.9598 7.43416C15.0389 7.49188 15.1032 7.56743 15.1476 7.65467C15.1921 7.74191 15.2153 7.83839 15.2155 7.93629V17.2717Z" fill="white"/>
<path d="M25.8954 17.2715C25.8956 17.3862 25.8641 17.4987 25.8044 17.5966C25.7446 17.6945 25.6588 17.7739 25.5567 17.826C25.4545 17.8781 25.3399 17.9008 25.2256 17.8917C25.1113 17.8826 25.0017 17.8421 24.9091 17.7745L14.9359 10.4596C14.857 10.4019 14.7928 10.3266 14.7484 10.2396C14.704 10.1526 14.6806 10.0563 14.6803 9.95863V0.622047C14.6801 0.507358 14.7117 0.394855 14.7715 0.297011C14.8313 0.199166 14.9171 0.119804 15.0193 0.0677219C15.1215 0.0156399 15.2361 -0.00712662 15.3504 0.00194649C15.4647 0.0110196 15.5743 0.0515778 15.667 0.119125L25.6401 7.43404C25.7189 7.49173 25.783 7.56711 25.8274 7.65412C25.8717 7.74112 25.895 7.83732 25.8954 7.93497V17.2715Z" fill="white"/>
<path d="M36.5784 17.2715C36.5786 17.3862 36.5471 17.4987 36.4874 17.5966C36.4276 17.6945 36.3418 17.7739 36.2397 17.826C36.1375 17.8781 36.0229 17.9008 35.9086 17.8917C35.7943 17.8826 35.6847 17.8421 35.592 17.7745L25.6173 10.4596C25.5384 10.4019 25.4742 10.3266 25.4298 10.2396C25.3854 10.1526 25.362 10.0563 25.3617 9.95863V0.622047C25.3615 0.507358 25.3931 0.394855 25.4529 0.297011C25.5127 0.199166 25.5985 0.119804 25.7007 0.0677219C25.8029 0.0156399 25.9175 -0.00712662 26.0318 0.00194649C26.1461 0.0110196 26.2557 0.0515778 26.3484 0.119125L36.3215 7.43404C36.4007 7.49168 36.4653 7.56718 36.5099 7.65442C36.5545 7.74165 36.578 7.83818 36.5784 7.93617V17.2715Z" fill="white"/>
</g>
<defs>
<filter id="filter0_d_2340_24" x="0" y="0" width="107.701" height="25.894" filterUnits="userSpaceOnUse" color-interpolation-filters="sRGB">
<feFlood flood-opacity="0" result="BackgroundImageFix"/>
<feColorMatrix in="SourceAlpha" type="matrix" values="0 0 0 0 0 0 0 0 0 0 0 0 0 0 0 0 0 0 127 0" result="hardAlpha"/>
<feOffset dy="4"/>
<feGaussianBlur stdDeviation="2"/>
<feComposite in2="hardAlpha" operator="out"/>
<feColorMatrix type="matrix" values="0 0 0 0 0 0 0 0 0 0 0 0 0 0 0 0 0 0 0.25 0"/>
<feBlend mode="normal" in2="BackgroundImageFix" result="effect1_dropShadow_2340_24"/>
<feBlend mode="normal" in="SourceGraphic" in2="effect1_dropShadow_2340_24" result="shape"/>
</filter>
</defs>
</svg>
